{"title":"Train 2008 DVDRip Xvid AC3 Stang91 LKRG","uid":6936336,"size":941462624,"categoryP":"video","categoryS":"movies","magnet":"?xt=urn:btih:5932063a65f2b196fc5f55a13ed4f65c6373f4ac&amp;dn=Train+2008+DVDRip+Xvid+AC3+Stang91+LKRG&amp;tr=udp%3A%2F%2Ftracker.openbittorrent.com%3A80&amp;tr=udp%3A%2F%2Fopen.demonii.com%3A1337&amp;tr=udp%3A%2F%2Ftracker.coppersurfer.tk%3A6969&amp;tr=udp%3A%2F%2Fexodus.desync.com%3A6969","seeders":0,"leechers":1,"uploader":"rcbcsk","files":-1,"time":1325839639,"description":"Encoded By .......: Stang91\nRuntime ..........: 1h 34mn\nFile Size ........: 898 MB\nResolution .......: 640x352\nIMDb URL .........: http://www.imdb.com/title/tt1015474/\nGenre ............: Horror/Thriller\nLanguage .........: English\nSubtitles ........: None\nVideo\nID : 0\nFormat : MPEG-4 Visual\nFormat profile : Advanced Simple@L5\nFormat settings, BVOP : Yes\nFormat settings, QPel : No\nFormat settings, GMC : No warppoints\nFormat settings, Matrix : Default (H.263)\nMuxing mode : Packed bitstream\nCodec ID : XVID\nCodec ID/Hint : XviD\nDuration : 1h 34mn\nBit rate : 873 Kbps\nWidth : 640 pixels\nHeight : 352 pixels\nDisplay aspect ratio : 16:9\nFrame rate : 23.976 fps\nColor space : YUV\nChroma subsampling : 4:2:0\nBit depth : 8 bits\nScan type : Progressive\nCompression mode : Lossy\nBits/(Pixel*Frame) : 0.162\nStream size : 589 MiB (66%)\nWriting library : XviD 1.2.1 (UTC 2008-12-04)\nAudio\nID : 1\nFormat : AC-3\nFormat/Info : Audio Coding 3\nMode extension : CM (complete main)\nCodec ID : 2000\nDuration : 1h 34mn\nBit rate mode : Constant\nBit rate : 448 Kbps\nChannel(s) : 6 channels\nChannel positions : Front: L C R, Side: L R, LFE\nSampling rate : 48.0 KHz\nBit depth : 16 bits\nCompression mode : Lossy\nStream size : 302 MiB (34%)\nAlignment : Split accross interleaves\nInterleave, duration : 42 ms (1.00 video frame)\nInterleave, preload duration : 500 ms","torrent":{"xt":"urn:btih:5932063a65f2b196fc5f55a13ed4f65c6373f4ac","amp;dn":"Train+2008+DVDRip+Xvid+AC3+Stang91+LKRG","amp;tr":["udp%3A%2F%2Ftracker.openbittorrent.com%3A80","udp%3A%2F%2Fopen.demonii.com%3A1337","udp%3A%2F%2Ftracker.coppersurfer.tk%3A6969","udp%3A%2F%2Fexodus.desync.com%3A6969"],"infoHash":"5932063a65f2b196fc5f55a13ed4f65c6373f4ac","infoHashBuffer":{"type":"Buffer","data":[89,50,6,58,101,242,177,150,252,95,85,161,62,212,246,92,99,115,244,172]},"announce":[],"urlList":[]}}